<?xml version="1.0" encoding="UTF-8"?>
<!DOCTYPE svg PUBLIC "-//W3C//DTD SVG 1.1//EN" "http://www.w3.org/Graphics/SVG/1.1/DTD/svg11.dtd">
<!-- Creator: CorelDRAW 2019 (64 Bit) -->
<svg xmlns="http://www.w3.org/2000/svg" xml:space="preserve" width="2480px" height="3508px" version="1.1" style="shape-rendering:geometricPrecision; text-rendering:geometricPrecision; image-rendering:optimizeQuality; fill-rule:evenodd; clip-rule:evenodd"
viewBox="0 0 2480 3507.43"
 xmlns:xlink="http://www.w3.org/1999/xlink">
 <defs>
  <style type="text/css">
   <![CDATA[
    .fil0 {fill:#FEFEFE}
   ]]>
  </style>
 </defs>
 <g id="Camada_x0020_1">
  <metadata id="CorelCorpID_0Corel-Layer"/>
  <path class="fil0" d="M1088.2 1786.55l0 -20.24c5.69,-3.01 37.22,-28.94 43.05,-33.85 0.46,-0.38 1.47,-1.25 1.65,-1.39l14.08 -11.21c0.85,-0.73 0.71,-0.63 1.62,-1.42 1.58,-1.37 1.83,-1.59 3.34,-2.73l38.89 -30.93c1.27,-0.98 1.59,-1.1 2.9,-2.16l20.57 -16.87c10.85,-9.6 22.98,-17.35 33.71,-27 2.05,-1.83 3.99,-3.15 6.28,-4.85 4.83,-3.59 8.04,-6.81 12.87,-10.4 32.41,-24.11 16.86,-25.46 52.04,-8.25l26.32 13.15c0.21,0.1 0.49,0.2 0.71,0.3l7.5 3.63c0.22,0.09 0.49,0.21 0.7,0.31 1.32,0.61 3.21,1.52 4.74,2.34l10.67 5.53c2.31,1.14 1.84,-0.2 3.71,2.35 -0.9,3.38 -1.51,2.44 -9.82,6.37 -1.54,0.73 -0.54,0.21 -2.01,1.03l-15.49 7.78c-0.22,0.1 -0.5,0.2 -0.71,0.3l-106.68 53.2c-3,1.45 -0.46,0.22 -2.6,1.45l-71.52 35.74c-3.79,1.55 -2.02,1.07 -4.62,2.46l-8.72 4.44c-1.88,0.94 -2.32,1.2 -4.02,2.05l-18.21 9.11c-6.8,3.4 -36.19,19.36 -40.95,19.76zm0 -109.28l0 -177.08c3.17,0.26 41.64,19.79 48.26,23.58l8.02 4.13c0.21,0.1 0.48,0.21 0.69,0.31l4.71 2.38c0.2,0.1 0.46,0.24 0.67,0.34l17.44 8.86c1.77,0.89 2.98,1.23 4.91,2.18l6.06 3.05c0.21,0.1 0.46,0.24 0.66,0.35l29.7 14.82c0.21,0.1 0.48,0.22 0.69,0.32l2.6 1.45c3.6,1.86 9.01,3.06 11.18,6.02 -0.5,1.86 -0.26,1.02 -1,2.04 -2.28,3.18 -15.93,12.42 -20.14,16.29 -9.1,8.35 -29.96,23.22 -39.41,31.41l-1.63 1.41c-10.4,8.91 -23.03,17.5 -33.04,26.66l-40.37 31.48zm611.18 -398.69l116.37 0c2.33,0 3.03,0.71 3.03,3.04l0 723.5c0,4.61 -7.18,3.07 -12.14,3.04 -167.29,-0.98 -334.61,-0.01 -501.9,-0.01 -172.36,0 -344.71,0 -517.07,0 2.11,-3.15 4.82,-4.9 7.95,-7.23l8.87 -7.32c9.75,-8.62 20.63,-15.66 30.58,-24.06l34.09 -27.63c0.16,-0.13 0.39,-0.33 0.55,-0.47 1.74,-1.46 2.5,-2.02 4.54,-3.54l17.34 -14.03c3.23,-2.46 5.56,-4.1 8.54,-6.64 0.16,-0.14 0.39,-0.33 0.55,-0.46l1.65 -1.39c1.07,-0.91 0.93,-0.83 2.18,-1.87l35.55 -28.2c0.99,-0.7 1.55,-1.08 2.34,-1.7l21.16 -17.29c0.16,-0.14 0.39,-0.34 0.55,-0.47 0.15,-0.14 0.38,-0.34 0.54,-0.47l49.58 -39.7c8.85,-6.42 -0.05,19.85 8.73,34.2 2.94,4.81 3.53,5.14 7.29,8.91 7.84,7.87 20.72,12.2 31.09,8.28l229.44 -113.59c2.92,-1.43 3.99,-2.01 6.77,-3.35l145.74 -72.82c4.31,-2.29 8.72,-4.49 13.37,-6.88 7.22,-3.72 14.74,-6.37 20.54,-11.83 0.15,-0.14 0.37,-0.35 0.52,-0.5l5.12 -6.01c4.81,-7.7 5.05,-13.91 5.05,-23.28 0,-4.88 -1.62,-6.59 -3.1,-10.05 -0.02,-0.05 -0.84,-2.09 -0.88,-2.16 -0.84,-1.77 -0.51,-1.05 -1.07,-1.95l-5.64 -6.51c-7.89,-7.43 -41.09,-22.12 -50.15,-26.75 -6.21,-3.18 -11.97,-5.92 -18.22,-9.11 -1.54,-0.79 -2.54,-1.31 -4.03,-2.04l-36.52 -18.12c-2.36,-1.15 -2.57,-1.24 -4.66,-2.42l-9.29 -4.87c3.35,-5.01 10.35,-8.98 15.25,-13.08l21.31 -17.14c2.12,-1.65 3.69,-2.68 5.8,-4.32l4.34 -3.75c0.17,-0.14 0.4,-0.32 0.57,-0.45l38.45 -30.36c0.81,-0.62 1.53,-1.22 2.23,-1.81l67.29 -54.14c2.05,-1.9 3.65,-2.99 5.64,-4.48l37.75 -30.05c1.12,-0.85 1.9,-1.46 2.79,-2.26l97.66 -78.42c0.15,-0.14 0.36,-0.35 0.51,-0.5 7.59,-6.99 17.08,-12.97 24.84,-19.68 2.71,-2.35 18.98,-15.81 20.62,-15.81zm-412.85 241.84c-5.24,-0.43 -9.95,-4.26 -14.64,-6.61l-17.54 -8.77c-1.61,-0.79 -1.73,-0.93 -3.32,-1.73 -19.99,-10.12 -76.32,-36.81 -93.84,-46.82 -13.98,-8 -28.64,-14.18 -43.12,-21.64l-14.17 -7.08c-11.9,-5.35 -22.75,-13.2 -34.83,-16.77 -0.26,-0.08 -0.54,-0.14 -0.8,-0.22 -0.25,-0.08 -0.52,-0.16 -0.76,-0.24 -9.2,-3.12 -12.5,-2.56 -21.89,0.56 -6.97,2.32 -12.33,7.04 -16.62,12.74 -7.9,10.5 -6.62,26.4 -6.62,39.92 0,86.68 -0.75,173.39 0.01,260.07 0.07,7.54 1.03,8.94 -3.58,12.61l-8.41 6.76c-0.16,0.13 -0.39,0.33 -0.55,0.47l-1.06 0.96c-10.27,9.1 -21.51,16.86 -32.02,25.65 -2.78,2.33 -5.38,4.35 -8.45,6.74l-34.29 27.43c-1.66,1.34 -2.33,1.73 -4.02,3.07l-12.86 10.4c-1.43,1.09 -2.54,1.9 -3.98,3.11l-33.03 26.68c-0.16,0.13 -0.4,0.3 -0.57,0.43l-25.88 20.67c-1.71,1.39 -2.88,2.15 -4.64,3.46 -16.02,11.91 -30.76,25.25 -46.53,37.45l-27.63 21.96c-0.21,0.2 -0.81,0.79 -1.02,0.99l-17.89 14.5c-9.83,7.69 -20.77,15.18 -29.98,23.65l-1.53 1.5c-0.16,0.14 -0.37,0.35 -0.52,0.49l-14.7 11.61c-1.75,1.5 -2.75,2.35 -4.45,3.65l-12.58 9.68c-3.51,2.78 -9.81,10.4 -13.88,10.4l-116.37 0c-2.33,0 -3.04,-0.7 -3.04,-3.03l0 -723.5c0,-4.61 7.18,-3.07 12.14,-3.04 167.29,0.98 334.61,0 501.9,0 172.36,0 344.72,0 517.08,0 -1.38,3.8 -9.49,8.54 -12.85,11.45l-65.91 52.47c-1.87,1.51 -2.52,2.2 -4.38,3.71 -3.32,2.69 -6.17,4.92 -9.68,7.53l-20.1 16.32c-9.26,8.67 -47.58,37.06 -59.75,47.52l-10.58 8.64c-0.16,0.13 -0.38,0.33 -0.54,0.47l-52.39 41.72c-1.28,1.18 -0.46,0.56 -2.09,1.96l-52.29 41.81c-2.98,2.22 -7.93,4.39 -8.96,8.24zm-800.41 -282.31l0 810.52c0,4.84 1.53,6.7 3.45,10.72 4.29,9.01 16.07,17.99 26.86,18.67 9.63,0.61 68.06,-1.95 69.05,1.08 0.02,0.06 0,0.33 -0.01,0.4 -0.44,2.8 -13.28,11.28 -15.79,13.22l-7.83 6.34c-1.24,1 -1.77,1.34 -2.87,2.18 -2.18,1.66 -3.15,2.61 -5.64,4.48l-22.31 18.17c-2.08,1.85 -3.53,2.75 -5.73,4.39 -7.87,5.84 -29.43,22.03 -34.84,30.93 -1.61,2.64 -0.44,0.8 -1.61,3.45l-1.66 3.4c-2.33,5.51 -1.99,16.86 0.69,22.48l7.72 12.51 8.83 6.36c8.26,4.48 16.64,4.31 25.51,2.41 9.72,-2.08 18,-10.96 25.44,-17.05l4.04 -3.05c10.98,-8.53 22.87,-17.27 33.05,-26.65l58.67 -46.57c2.36,-1.99 4.28,-3.31 6.77,-5.37l26.26 -21.3c15.22,-12.09 13.02,-11.86 35.7,-11.86l1123.2 0c4.05,0 8.17,0.1 12.2,0.07l17.89 -6.41c0.17,-0.12 0.41,-0.3 0.58,-0.42l2.74 -2.32c4.96,-4.43 11.11,-12.44 11.11,-19.25l0 -812.55c0,-4.83 -4.88,-13.16 -7.97,-16.31l-1.03 -0.99c-4.67,-4.47 -7.96,-6.91 -14.21,-9.07 -0.24,-0.08 -0.51,-0.17 -0.75,-0.26l-2.89 -1.16c-10.73,-3.19 -71.29,2.31 -72.51,-1.67 -0.75,-2.43 13.45,-11.79 15.8,-13.62 2.14,-1.65 3.03,-2.25 5.1,-4.01 1.15,-0.97 1.57,-1.37 2.73,-2.32 1.24,-1 1.77,-1.34 2.88,-2.19 2.18,-1.66 3.14,-2.6 5.64,-4.48l12.43 -9.83c0.17,-0.12 0.41,-0.3 0.58,-0.42l9.32 -7.89c7.39,-6 15.71,-11.32 22.72,-17.76 0.15,-0.14 0.36,-0.36 0.51,-0.5 0.15,-0.14 0.36,-0.36 0.51,-0.5l10.93 -9.31c3.27,-3.11 6.02,-7.56 7.79,-11.44 0.1,-0.21 0.22,-0.47 0.32,-0.68 3.48,-7.38 2.1,-9.59 2.1,-19.15 0,-4.46 -3.69,-9.65 -5.98,-13.25l-11.01 -10.24c-18.66,-11.22 -35.47,-0.89 -49.24,10.89l-9.55 7.65c-1.61,1.14 -1.62,1.03 -3.47,2.6 -1.31,1.11 -1.96,1.69 -3.26,2.8l-16.24 13.11c-6.38,5.97 -13.58,10.64 -20.26,16.17l-85.82 69c-1.61,1.25 -1.92,1.4 -3.42,2.65 -6.98,5.76 -16.54,3.85 -26.51,3.85l-1123.19 0c-5.85,0 -12.93,-0.81 -18.12,1.12 -5.92,2.2 -10.15,4.19 -14.81,8.45 -1,0.91 -0.73,0.64 -1.59,1.46 -4.76,4.54 -9,10.97 -9,18.32z"/>
 </g>
</svg>
