<?xml version="1.0" encoding="UTF-8"?>
<!DOCTYPE svg PUBLIC "-//W3C//DTD SVG 1.1//EN" "http://www.w3.org/Graphics/SVG/1.1/DTD/svg11.dtd">
<!-- Creator: CorelDRAW 2019 (64 Bit) -->
<svg xmlns="http://www.w3.org/2000/svg" xml:space="preserve" width="91.44mm" height="91.44mm" version="1.1" style="shape-rendering:geometricPrecision; text-rendering:geometricPrecision; image-rendering:optimizeQuality; fill-rule:evenodd; clip-rule:evenodd"
viewBox="0 0 9144 9144"
 xmlns:xlink="http://www.w3.org/1999/xlink">
 <defs>
  <style type="text/css">
   <![CDATA[
    .fil0 {fill:#FFBB09}
    .fil1 {fill:#FEFEFE;fill-rule:nonzero}
   ]]>
  </style>
 </defs>
 <g id="Camada_x0020_1">
  <metadata id="CorelCorpID_0Corel-Layer"/>
  <g id="Icone">
   <g id="Minimalist_x0020_Black_x0020_and_x0020_White_x0020_Music_x0020_Studio_x0020_Logo_x0020__x0028_1_x0029_.svg">
    <g id="__x0023_fcdb53ff">
     <path class="fil0" d="M3500.41 2631.43c122.58,-39.72 252.74,6.71 359.03,69.44 774.08,530.33 1548.73,1059.81 2323.09,1590.01 102.15,69.14 189.73,168.73 221.02,290.31 18.71,96.15 13.14,201.16 -37.86,287.17 -59.58,116.73 -173.73,188.59 -279.03,259.45 -687.64,470.34 -1375.56,940.1 -2063.34,1410.14 -112.73,73.87 -220.31,165.59 -355.47,194.02 -76.86,12.86 -165.16,11.86 -228.45,-40 -89.15,-69.44 -121.87,-189.31 -119.15,-298.17 -0.43,-1151.97 -0.15,-2304.09 -0.29,-3456.2 -0.43,-123.01 57,-261.74 180.45,-306.17z"/>
    </g>
   </g>
   <path class="fil1" d="M3810.75 4623.92c-5.83,-61.25 48.61,-118.07 109.6,-117.51 65.56,-6.25 123.75,54.45 119.03,119.18 -0.83,613.25 -4.16,1226.5 -4.16,1839.88 -0.3,21.62 -0.52,43.23 -0.71,64.85l-11.19 7.64c-72,47.18 -141.93,101.64 -218.25,142.24 0.08,-23.29 0.13,-46.57 0.13,-69.85 1.94,-662.14 3.62,-1324.29 5.55,-1986.43zm2095.9 627l-229.21 156.71 0.29 -70.6c0.13,-103.19 -0.69,-206.39 1.25,-309.61 2.5,-44.58 38.05,-80.27 79.04,-93.61 56.1,-21.11 122.92,15.14 142.08,70.57 13.9,57.77 3.75,118.34 6.82,177.23l-0.27 69.31zm-369.08 252.32l-229.77 157.04 0.17 -68.36c1.39,-327.66 0.83,-655.33 3.2,-982.86 0,-67.65 74.03,-115.57 137.09,-100.43 54.45,7.92 93.9,62.64 90.98,116.55 0.28,269.73 -2.49,539.62 -1.25,809.51l-0.42 68.55zm-394.54 269.63l-229.2 156.6 0.5 -67.52c-0.56,-273.5 1.11,-547.13 1.8,-820.76 -4.72,-72.38 75.98,-129.61 143.21,-109.19 47.91,12.51 85.42,58.63 85.14,108.76 0.84,220.86 -1.8,441.86 -1.24,662.71l-0.21 69.4zm-369.85 252.71l-229.2 156.6c0.12,-22.15 0.19,-44.31 0.03,-66.46 1.25,-279.33 1.39,-558.79 2.36,-838.13 -8.05,-75.28 75.57,-139.74 146.26,-115.43 49.87,14.03 85.57,64.31 82.52,116.13 -0.15,227.1 -1.67,454.2 -1.39,681.31 -0.28,21.99 -0.46,43.99 -0.58,65.98zm-369.47 252.44l-229.32 156.7c0.17,-22.16 0.44,-44.31 0.56,-66.47 0.56,-442.27 2.22,-884.53 3.48,-1326.8 -1.54,-37.91 18.6,-74.85 51.4,-94.03 69.44,-52.23 179.31,6.95 176.67,92.93 1.25,390.31 -3.06,780.48 -1.81,1170.79 -0.5,22.29 -0.81,44.59 -0.98,66.88zm-921.88 -1338.79c71.12,-38.61 165.72,23.34 162.8,103.06 -0.84,491.02 -2.23,982.03 -3.75,1473.05 3.6,69.17 -68.9,128.48 -135.71,113.62 -53.07,-9.44 -96.12,-60.14 -92.93,-114.45 1.12,-490.75 2.64,-981.62 4.04,-1472.36 -2.92,-44.44 25.97,-85.14 65.55,-102.92z"/>
  </g>
 </g>
</svg>
